<?xml version="1.0" encoding="UTF-8" standalone="no"?>
<svg
   xmlns:dc="http://purl.org/dc/elements/1.1/"
   xmlns:cc="http://creativecommons.org/ns#"
   xmlns:rdf="http://www.w3.org/1999/02/22-rdf-syntax-ns#"
   xmlns:svg="http://www.w3.org/2000/svg"
   xmlns="http://www.w3.org/2000/svg"
   xmlns:sodipodi="http://sodipodi.sourceforge.net/DTD/sodipodi-0.dtd"
   xmlns:inkscape="http://www.inkscape.org/namespaces/inkscape"
   inkscape:version="1.0 (4035a4fb49, 2020-05-01)"
   height="512"
   width="258.27127"
   sodipodi:docname="compass.svg"
   xml:space="preserve"
   viewBox="0 0 258.27127 512"
   y="0px"
   x="0px"
   id="Capa_1"
   version="1.1"><metadata
   id="metadata73"><rdf:RDF><cc:Work
       rdf:about=""><dc:format>image/svg+xml</dc:format><dc:type
         rdf:resource="http://purl.org/dc/dcmitype/StillImage" /></cc:Work></rdf:RDF></metadata><defs
   id="defs71">
	
	
	
</defs><sodipodi:namedview
   inkscape:current-layer="Capa_1"
   inkscape:window-maximized="1"
   inkscape:window-y="-8"
   inkscape:window-x="-8"
   inkscape:cy="638.20044"
   inkscape:cx="-754.22655"
   inkscape:zoom="0.40406677"
   showgrid="false"
   id="namedview69"
   inkscape:window-height="1017"
   inkscape:window-width="1920"
   inkscape:pageshadow="2"
   inkscape:pageopacity="0"
   guidetolerance="10"
   gridtolerance="10"
   objecttolerance="10"
   borderopacity="1"
   bordercolor="#666666"
   pagecolor="#ffffff" />















<g
   transform="translate(-126.86438)"
   id="g38">
</g>
<g
   transform="translate(-126.86438)"
   id="g40">
</g>
<g
   transform="translate(-126.86438)"
   id="g42">
</g>
<g
   transform="translate(-126.86438)"
   id="g44">
</g>
<g
   transform="translate(-126.86438)"
   id="g46">
</g>
<g
   transform="translate(-126.86438)"
   id="g48">
</g>
<g
   transform="translate(-126.86438)"
   id="g50">
</g>
<g
   transform="translate(-126.86438)"
   id="g52">
</g>
<g
   transform="translate(-126.86438)"
   id="g54">
</g>
<g
   transform="translate(-126.86438)"
   id="g56">
</g>
<g
   transform="translate(-126.86438)"
   id="g58">
</g>
<g
   transform="translate(-126.86438)"
   id="g60">
</g>
<g
   transform="translate(-126.86438)"
   id="g62">
</g>
<g
   transform="translate(-126.86438)"
   id="g64">
</g>
<g
   transform="translate(-126.86438)"
   id="g66">
</g>
<g
   transform="translate(-126.86438)"
   id="g116"><g
     id="g98"><rect
       id="rect2"
       height="56.619999"
       width="29.1"
       style="fill:#5f666f"
       y="47.130001"
       x="241.45" /><polygon
       id="polygon4"
       points="259.014,61.886 259.014,103.746 270.551,103.746 270.551,47.131 241.449,47.131 241.449,61.886 "
       style="opacity:0.1;enable-background:new" /><path
       id="path6"
       d="m 364.095,512 c -4.143,0 -7.5,-3.357 -7.5,-7.5 V 442 c 0,-4.143 3.357,-7.5 7.5,-7.5 4.143,0 7.5,3.357 7.5,7.5 v 62.5 c 0,4.143 -3.358,7.5 -7.5,7.5 z"
       style="fill:#394049" /><path
       id="path8"
       d="m 362.215,484.553 v 0 c -7.1,1.252 -13.899,-3.398 -15.306,-10.469 l -59.97,-302.549 54.418,-9.595 43.453,291.087 c 2.291,14.904 -7.745,28.908 -22.595,31.526 z"
       style="fill:#5f666f" /><path
       id="path10"
       d="m 384.81,453.027 -9.772,-65.464 h -45.279 l 17.15,86.521 c 1.408,7.07 8.207,11.721 15.306,10.469 14.85,-2.618 24.886,-16.622 22.595,-31.526 z"
       style="fill:#76c9d2" /><path
       id="path12"
       d="m 147.905,512 c -4.143,0 -7.5,-3.357 -7.5,-7.5 V 442 c 0,-4.143 3.357,-7.5 7.5,-7.5 4.143,0 7.5,3.357 7.5,7.5 v 62.5 c 0,4.143 -3.357,7.5 -7.5,7.5 z"
       style="fill:#394049" /><path
       id="path14"
       d="m 149.786,484.553 v 0 c 7.1,1.252 13.899,-3.398 15.306,-10.469 l 59.97,-302.549 -54.418,-9.595 -43.454,291.087 c -2.291,14.904 7.746,28.908 22.596,31.526 z"
       style="fill:#5f666f" /><path
       id="path16"
       d="m 136.963,387.563 -9.772,65.464 c -2.291,14.904 7.745,28.908 22.595,31.526 7.1,1.252 13.899,-3.398 15.306,-10.469 l 17.15,-86.521 z"
       style="fill:#76c9d2" /><path
       id="path18"
       d="m 218.669,170.409 -48.026,-8.468 -9.685,64.877 c 6.434,14.454 16.07,27.166 28.004,37.241 l -41.631,210.026 c -0.663,3.33 -2.53,6.111 -5.053,8.003 2.318,1.148 4.832,1.994 7.506,2.465 7.1,1.252 13.899,-3.398 15.306,-10.469 l 59.97,-302.548 z"
       style="opacity:0.1;enable-background:new" /><path
       id="path20"
       d="m 384.81,453.027 -43.453,-291.087 -7.329,1.292 -47.09,8.303 20.5,103.425 c 12.759,-7.277 23.82,-17.18 32.461,-28.971 l 30.906,207.037 c 2.009,13.066 -5.458,25.439 -17.336,30.056 2.57,1.43 5.628,2.019 8.745,1.47 14.851,-2.617 24.887,-16.621 22.596,-31.525 z"
       style="opacity:0.1;enable-background:new" /><circle
       id="circle22"
       r="87.089996"
       cy="174.84"
       cx="256"
       style="fill:#dc5371" /><path
       id="path24"
       d="m 304.488,102.489 c 13.519,15.345 21.736,35.474 21.736,57.533 0,48.099 -38.992,87.091 -87.091,87.091 -17.95,0 -34.628,-5.435 -48.487,-14.742 15.959,18.115 39.314,29.558 65.354,29.558 48.099,0 87.091,-38.992 87.091,-87.091 0,-30.149 -15.324,-56.716 -38.603,-72.349 z"
       style="opacity:0.1;enable-background:new" /><path
       id="path26"
       d="m 286.569,0 h -61.137 c -3.294,0 -5.964,2.67 -5.964,5.964 v 35.202 c 0,3.294 2.67,5.964 5.964,5.964 h 61.137 c 3.294,0 5.964,-2.67 5.964,-5.964 V 5.964 C 292.533,2.67 289.862,0 286.569,0 Z"
       style="fill:#394049" /><path
       id="path28"
       d="m 286.568,0 h -19.106 c 3.294,0 5.964,2.67 5.964,5.964 v 35.202 c 0,3.294 -2.67,5.964 -5.964,5.964 h 19.106 c 3.294,0 5.965,-2.67 5.965,-5.964 V 5.964 C 292.533,2.67 289.863,0 286.568,0 Z"
       style="opacity:0.15;enable-background:new" /></g><circle
     style="fill:#565c64;fill-opacity:1;stroke-width:5.53703;stroke-linecap:round;stroke-linejoin:round;stroke-dasharray:5.53703, 11.074"
     id="path80"
     cx="256"
     cy="113.28477"
     r="14.494144" /></g></svg>
