<?xml version="1.0" encoding="UTF-8" standalone="no"?>
<svg
   xmlns:dc="http://purl.org/dc/elements/1.1/"
   xmlns:cc="http://creativecommons.org/ns#"
   xmlns:rdf="http://www.w3.org/1999/02/22-rdf-syntax-ns#"
   xmlns:svg="http://www.w3.org/2000/svg"
   xmlns="http://www.w3.org/2000/svg"
   xmlns:sodipodi="http://sodipodi.sourceforge.net/DTD/sodipodi-0.dtd"
   xmlns:inkscape="http://www.inkscape.org/namespaces/inkscape"
   height="461.08398"
   width="512.00299"
   version="1.1"
   id="Capa_1"
   x="0px"
   y="0px"
   viewBox="0 0 512.003 461.08399"
   xml:space="preserve"
   sodipodi:docname="desk-lamp.svg"
   inkscape:version="1.0 (4035a4fb49, 2020-05-01)"><metadata
   id="metadata85"><rdf:RDF><cc:Work
       rdf:about=""><dc:format>image/svg+xml</dc:format><dc:type
         rdf:resource="http://purl.org/dc/dcmitype/StillImage" /></cc:Work></rdf:RDF></metadata><defs
   id="defs83" /><sodipodi:namedview
   inkscape:document-rotation="0"
   pagecolor="#ffffff"
   bordercolor="#666666"
   borderopacity="1"
   objecttolerance="10"
   gridtolerance="10"
   guidetolerance="10"
   inkscape:pageopacity="0"
   inkscape:pageshadow="2"
   inkscape:window-width="1920"
   inkscape:window-height="1017"
   id="namedview81"
   showgrid="false"
   inkscape:zoom="0.5563265"
   inkscape:cx="232.00588"
   inkscape:cy="357.8147"
   inkscape:window-x="-8"
   inkscape:window-y="-8"
   inkscape:window-maximized="1"
   inkscape:current-layer="Capa_1" />
<path
   style="fill:#dc5371"
   d="m 454.90098,178.614 c -2.59,0 -5.221,-0.511 -7.754,-1.589 L 208.28198,75.324997 c -10.07,-4.287 -14.757,-15.926 -10.47,-25.996 4.287,-10.07 15.926,-14.757 25.996,-10.47 L 462.67298,140.56 c 10.07,4.287 14.757,15.926 10.47,25.996 -3.21,7.537 -10.537,12.058 -18.242,12.058 z"
   id="path2" />
<path
   style="opacity:0.1;enable-background:new"
   d="m 287.81798,66.111997 -64.01,-27.253 c -10.07,-4.287 -21.709,0.4 -25.996,10.47 -4.287,10.07 0.4,21.709 10.47,25.996 l 68.093,28.992003 c 7.263,-9.578003 11.579,-21.513003 11.579,-34.460003 -10e-4,-1.26 -0.056,-2.506 -0.136,-3.745 z"
   id="path4" />
<path
   style="fill:#dc5371"
   d="m 293.97498,446.299 c -3.476,0 -6.995,-0.914 -10.191,-2.835 -9.38,-5.639 -12.413,-17.814 -6.774,-27.195 l 160.916,-267.687 c 5.639,-9.379 17.814,-12.412 27.194,-6.774 9.38,5.639 12.413,17.814 6.774,27.195 l -160.916,267.687 c -3.717,6.183 -10.277,9.609 -17.003,9.609 z"
   id="path6" />
<path
   style="opacity:0.1;enable-background:new"
   d="m 292.98998,389.685 -15.98,26.584 c -5.639,9.381 -2.606,21.556 6.774,27.195 3.196,1.921 6.715,2.835 10.191,2.835 6.726,0 13.285,-3.426 17.003,-9.61 l 28.256,-47.004 z"
   id="path8" />
<path
   style="opacity:0.1;enable-background:new"
   d="m 465.11898,141.808 c -9.38,-5.638 -21.555,-2.604 -27.194,6.774 l -42.668,70.979 c 8.567,10.238 20.655,17.42 34.403,19.697 l 42.233,-70.256 c 5.639,-9.38 2.606,-21.556 -6.774,-27.194 z"
   id="path10" />
<circle
   style="fill:#ec8087"
   cx="454.90997"
   cy="158.78999"
   r="57.09"
   id="circle12" />
<path
   style="opacity:0.1;enable-background:new"
   d="m 472.57298,104.498 c 13.962,10.408 23.004,27.048 23.004,45.8 0,31.531 -25.561,57.092 -57.092,57.092 -6.167,0 -12.1,-0.99 -17.663,-2.799 9.513,7.092 21.31,11.292 34.088,11.292 31.531,0 57.093,-25.561 57.093,-57.093 -10e-4,-25.363 -16.547,-46.852 -39.43,-54.292 z"
   id="path14" />
<circle
   style="fill:#dc5371"
   cx="454.90997"
   cy="158.78999"
   r="19.822001"
   id="circle16" />
<path
   style="fill:#ec8087"
   d="m 400.62898,461.083 h -215.432 c -7.397,0 -13.394,-5.997 -13.394,-13.394 v -22.538 c 0,-7.397 5.997,-13.394 13.394,-13.394 h 215.432 c 7.397,0 13.394,5.997 13.394,13.394 v 22.538 c 0,7.398 -5.997,13.394 -13.394,13.394 z"
   id="path18" />
<path
   style="opacity:0.1;enable-background:new"
   d="m 400.62898,411.758 h -27.503 c 7.397,0 13.394,5.996 13.394,13.394 v 22.538 c 0,7.397 -5.997,13.394 -13.394,13.394 h 27.503 c 7.397,0 13.394,-5.996 13.394,-13.394 v -22.538 c 0,-7.397 -5.997,-13.394 -13.394,-13.394 z"
   id="path20" />
<circle
   style="fill:#ec8087"
   cx="216.03998"
   cy="57.09"
   r="57.09"
   id="circle22" />
<path
   style="opacity:0.1;enable-background:new"
   d="m 231.11898,2.0249966 c 14.56,10.3460004 24.07,27.3360004 24.07,46.5580004 0,31.531 -25.561,57.093003 -57.092,57.093003 -5.22,0 -10.27,-0.714 -15.074,-2.026 9.324,6.626 20.713,10.534 33.023,10.534 31.531,0 57.092,-25.561003 57.092,-57.092003 -0.001,-26.312 -17.805,-48.4530004 -42.019,-55.0670004 z"
   id="path24" />
<path
   style="fill:#dc5371"
   d="m 193.29998,238.858 c 13.115,13.115 35.171,10.549 44.689,-5.37 33.21,-55.539 25.896,-128.558 -21.944,-176.398003 -47.84,-47.8400004 -120.858002,-55.1530004 -176.398002,-21.943 -15.919,9.519 -18.485,31.574 -5.37,44.689 z"
   id="path26" />
<path
   style="opacity:0.1;enable-background:new"
   d="m 216.04498,57.090997 c -31.329,-31.329 -73.455,-45.273 -114.4,-41.843 32.909,2.727 65.064,16.664 90.242,41.843 47.84,47.839003 55.154,120.858003 21.944,176.397003 -3.055,5.11 -7.406,8.835 -12.334,11.117 12.764,5.932 28.762,1.811 36.492,-11.117 33.21,-55.539 25.895,-128.557 -21.944,-176.397003 z"
   id="path28" />

<g
   transform="translate(-2.1952385e-5,-25.459003)"
   id="g44">
	<path
   style="fill:#f6d83e"
   d="m 47.678,258.417 c -1.919,0 -3.839,-0.732 -5.303,-2.196 -2.929,-2.93 -2.929,-7.678 0,-10.607 l 33.14,-33.14 c 2.929,-2.928 7.678,-2.928 10.606,0 2.929,2.93 2.929,7.678 0,10.607 l -33.14,33.14 c -1.464,1.464 -3.384,2.196 -5.303,2.196 z"
   id="path38" />
	<path
   style="fill:#f6d83e"
   d="m 7.504,171.934 c -2.994,0 -5.823,-1.806 -6.983,-4.761 -1.514,-3.855 0.384,-8.209 4.24,-9.723 l 32.363,-12.707 c 3.854,-1.515 8.208,0.385 9.722,4.24 1.514,3.855 -0.384,8.209 -4.24,9.723 l -32.363,12.707 c -0.9,0.354 -1.827,0.521 -2.739,0.521 z"
   id="path40" />
	<path
   style="fill:#f6d83e"
   d="m 134.161,298.595 c -0.912,0 -1.839,-0.167 -2.739,-0.521 -3.855,-1.514 -5.754,-5.867 -4.24,-9.723 l 12.707,-32.363 c 1.514,-3.854 5.867,-5.753 9.722,-4.24 3.855,1.514 5.754,5.867 4.24,9.723 l -12.707,32.363 c -1.16,2.955 -3.989,4.761 -6.983,4.761 z"
   id="path42" />
</g>
<path
   style="fill:#5f666f"
   d="m 379.40498,378.937 v 0 c -9.064,0 -16.411,7.347 -16.411,16.411 v 16.411 h 32.822 v -16.411 c 0,-9.064 -7.348,-16.411 -16.411,-16.411 z"
   id="path46" />
<path
   style="opacity:0.1;enable-background:new"
   d="m 379.40498,378.937 c -1.281,0 -2.522,0.161 -3.718,0.439 7.269,1.686 12.692,8.189 12.692,15.972 v 7.36 h -25.385 v 9.051 h 32.822 v -16.411 c 0,-9.064 -7.348,-16.411 -16.411,-16.411 z"
   id="path48" />
<g
   transform="translate(-2.1952385e-5,-25.459003)"
   id="g50">
</g>
<g
   transform="translate(-2.1952385e-5,-25.459003)"
   id="g52">
</g>
<g
   transform="translate(-2.1952385e-5,-25.459003)"
   id="g54">
</g>
<g
   transform="translate(-2.1952385e-5,-25.459003)"
   id="g56">
</g>
<g
   transform="translate(-2.1952385e-5,-25.459003)"
   id="g58">
</g>
<g
   transform="translate(-2.1952385e-5,-25.459003)"
   id="g60">
</g>
<g
   transform="translate(-2.1952385e-5,-25.459003)"
   id="g62">
</g>
<g
   transform="translate(-2.1952385e-5,-25.459003)"
   id="g64">
</g>
<g
   transform="translate(-2.1952385e-5,-25.459003)"
   id="g66">
</g>
<g
   transform="translate(-2.1952385e-5,-25.459003)"
   id="g68">
</g>
<g
   transform="translate(-2.1952385e-5,-25.459003)"
   id="g70">
</g>
<g
   transform="translate(-2.1952385e-5,-25.459003)"
   id="g72">
</g>
<g
   transform="translate(-2.1952385e-5,-25.459003)"
   id="g74">
</g>
<g
   transform="translate(-2.1952385e-5,-25.459003)"
   id="g76">
</g>
<g
   transform="translate(-2.1952385e-5,-25.459003)"
   id="g78">
</g>
</svg>
