<svg id="Capa_1" enable-background="new 0 0 510 510" height="512" viewBox="0 0 510 510" width="512" xmlns="http://www.w3.org/2000/svg"><g id="XMLID_54_"><path id="XMLID_502_" d="m239.836 495.037-.333-137 29.999-.037.333 137.001z" fill="#ffc473"/><path id="XMLID_448_" d="m254.503 495.001h15.332l-.333-137.001h-14.999z" fill="#ff9f00"/><path id="XMLID_434_" d="m30.097 390.69h183.299v30h-183.299z" fill="#ffc473" transform="matrix(.225 -.975 .975 .225 -300.921 433.248)"/><g fill="#ff9f00"><path id="XMLID_427_" d="m59.503 480h86.333v30h-86.333z"/><path id="XMLID_61_" d="m211.003 480h86.333v30h-86.333z"/><path id="XMLID_63_" d="m372.006 314.097h30v183.186h-30z" transform="matrix(.975 -.222 .222 .975 -80.377 95.994)"/></g><path id="XMLID_426_" d="m364.164 480h86.333v30h-86.333z" fill="#ff8700"/><ellipse id="XMLID_473_" cx="254.503" cy="182.415" fill="#f5f5f8" rx="182.415" ry="182.415" transform="matrix(.707 -.707 .707 .707 -54.445 233.389)"/><path id="XMLID_447_" d="m254.503 0v364.83c100.584 0 182.415-81.831 182.415-182.415s-81.832-182.415-182.415-182.415z" fill="#e3e3ec"/><path id="XMLID_437_" d="m254.503 319.067c-75.35 0-136.652-61.302-136.652-136.652s61.302-136.652 136.652-136.652 136.652 61.302 136.652 136.652-61.302 136.652-136.652 136.652zm0-241.425c-57.772 0-104.774 47.001-104.774 104.774s47.001 104.774 104.774 104.774 104.774-47.001 104.774-104.774-47.002-104.774-104.774-104.774z" fill="#ff3f5c"/><path id="XMLID_604_" d="m254.148 198.354c8.337 0 16.325-7.331 15.939-15.939-.387-8.636-7.003-15.939-15.939-15.939-8.337 0-16.325 7.331-15.939 15.939.387 8.636 7.004 15.939 15.939 15.939z" fill="#ff3f5c"/><path id="XMLID_72_" d="m254.148 257.431c-41.364 0-75.016-33.652-75.016-75.016s33.652-75.016 75.016-75.016 75.017 33.652 75.017 75.016-33.653 75.016-75.017 75.016zm0-118.154c-23.786 0-43.138 19.352-43.138 43.138s19.352 43.138 43.138 43.138 43.138-19.352 43.138-43.138-19.351-43.138-43.138-43.138z" fill="#00dec1"/><path id="XMLID_449_" d="m254.503 480h42.833v30h-42.833z" fill="#ff8700"/><path id="XMLID_442_" d="m254.503 45.763v31.878c57.773 0 104.774 47.001 104.774 104.774s-47.001 104.774-104.774 104.774v31.878c75.35 0 136.652-61.302 136.652-136.652s-61.302-136.652-136.652-136.652z" fill="#ff001e"/><path id="XMLID_476_" d="m254.503 107.408v31.878c23.623.192 42.784 19.461 42.784 43.129s-19.161 42.937-42.784 43.129v31.878c41.201-.193 74.662-33.762 74.662-75.007s-33.461-74.815-74.662-75.007z" fill="#00cdb2"/><path id="XMLID_511_" d="m254.503 166.494v31.841c8.208-.204 15.965-7.435 15.585-15.92-.382-8.52-6.832-15.728-15.585-15.921z" fill="#ff001e"/></g></svg>