<?xml version="1.0" encoding="iso-8859-1"?>
<!-- Generator: Adobe Illustrator 19.0.0, SVG Export Plug-In . SVG Version: 6.00 Build 0)  -->
<svg version="1.1" id="Capa_1" xmlns="http://www.w3.org/2000/svg" xmlns:xlink="http://www.w3.org/1999/xlink" x="0px" y="0px"
	 viewBox="0 0 512 512" style="enable-background:new 0 0 512 512;" xml:space="preserve">
<path style="fill:#F2DFA6;" d="M290.209,490.342c-9.914,0-17.952-8.037-17.952-17.952V358.265c0-9.915,8.038-17.952,17.952-17.952
	s17.952,8.037,17.952,17.952v114.126C308.162,482.306,300.124,490.342,290.209,490.342z"/>
<path style="opacity:0.1;enable-background:new    ;" d="M290.209,490.342c-9.914,0-17.952-8.037-17.952-17.952V358.265
	c0-9.915,8.038-17.952,17.952-17.952s17.952,8.037,17.952,17.952v114.126C308.162,482.306,300.124,490.342,290.209,490.342z"/>
<path style="fill:#F2DFA6;" d="M290.209,434.681c-67.192,0-130.361-26.166-177.873-73.677
	c-47.512-47.512-73.677-110.681-73.677-177.873S64.825,52.77,112.336,5.258c7.011-7.01,18.377-7.01,25.388,0
	c7.012,7.011,7.012,18.378,0,25.388c-84.079,84.081-84.079,220.889,0,304.969c42.036,42.034,97.27,63.054,152.485,63.06
	c55.229,0.005,110.44-21.015,152.485-63.06c7.012-7.011,18.378-7.011,25.388,0.001c7.012,7.01,7.012,18.377,0,25.388
	C420.57,408.515,357.401,434.681,290.209,434.681z"/>
<path style="opacity:0.1;enable-background:new    ;" d="M468.082,335.615c-7.009-7.012-18.376-7.011-25.388,0
	c-8.638,8.638-17.84,16.374-27.475,23.237c7.873-2.483,16.735,0.448,21.425,7.72c4.517,7,3.781,15.87-1.194,22.009
	c11.52-8.181,22.438-17.384,32.632-27.577C475.093,353.993,475.093,342.626,468.082,335.615z"/>
<g>
	<circle style="fill:#507CDD;" cx="290.21" cy="183.13" r="179.49"/>
	<circle style="fill:#507CDD;" cx="290.21" cy="183.13" r="179.49"/>
</g>
<path style="fill:#4FBB74;" d="M391.706,225.213c-18.938-8.002,10.356-34.818,21.358-54.284
	c11.001-19.467-27.934-23.942-37.923-4.579c-9.989,19.364-24.836,22.862-57.065,3.801s-0.579-61.757,27.71-53.342
	s27.647-24.464,14.653-57.226C347.445,26.819,316.972,70.339,271.292,51c-29.616-12.538-77.401-0.325-124.024,23.596
	c-19.625,25.858-32.248,56.952-35.649,90.148c25.694-10.867,47.043-3.455,49.299,14.56c5.113,28.997,32.914,101.17,63.924,81.581
	c22.18-14.011-7.391-23.144-20.733-58.822c-12.448-33.287,14.887-26.664,26.047-10.149c11.16,16.514,80.056,62.267,105.981,51.427
	s41.387,35.921,30.328,49.212c-7.24,8.701-12.359,34.428-6.38,55.944c55.629-23.447,95.377-73.47,106.487-131.822
	C441.652,215.854,404.982,230.822,391.706,225.213z"/>
<path style="opacity:0.1;enable-background:new    ;" d="M466.971,151.963C455.669,87.865,411.653,37.752,355.122,15.765
	c39.58,26.228,68.743,68.013,77.639,118.464c17.213,97.623-47.971,190.716-145.594,207.929c-33.525,5.911-66.514,2.104-96.081-9.395
	c37.007,24.523,83.119,35.447,130.29,27.13C419,342.678,484.185,249.586,466.971,151.963z"/>
<path style="fill:#F2DFA6;" d="M398.436,465.201H181.983c-8.135,0-14.73,6.595-14.73,14.73v17.34c0,8.135,6.595,14.73,14.73,14.73
	h216.453c8.135,0,14.73-6.595,14.73-14.73v-17.34C413.166,471.796,406.571,465.201,398.436,465.201z"/>
<path style="opacity:0.1;enable-background:new    ;" d="M398.436,465.201h-27.165c8.135,0,14.73,6.595,14.73,14.73v17.34
	c0,8.135-6.595,14.73-14.73,14.73h27.165c8.135,0,14.73-6.595,14.73-14.73v-17.34C413.166,471.796,406.571,465.201,398.436,465.201z
	"/>
<g>
</g>
<g>
</g>
<g>
</g>
<g>
</g>
<g>
</g>
<g>
</g>
<g>
</g>
<g>
</g>
<g>
</g>
<g>
</g>
<g>
</g>
<g>
</g>
<g>
</g>
<g>
</g>
<g>
</g>
</svg>
