<svg id="Capa_1" enable-background="new 0 0 510.5 510.5" height="512" viewBox="0 0 510.5 510.5" width="512" xmlns="http://www.w3.org/2000/svg"><g id="XMLID_30_"><path id="XMLID_1472_" d="m210.933 43.473c0 20.806-16.927 37.733-37.733 37.733-20.729 0-37.669-16.957-37.761-37.799l-30 .066c0 20.933-16.914 37.962-37.705 37.962-20.807 0-37.734-16.927-37.734-37.733h-30v229.636l51.784 141.716h137.364l51.784-141.716v-229.865z" fill="#7a8b97"/><path id="XMLID_1593_" d="m210.933 43.473c0 20.806-16.927 37.733-37.733 37.733-20.729 0-37.669-16.957-37.761-37.799l-14.972.033v371.615h68.682l51.784-141.716v-229.866z" fill="#596c76"/><path id="XMLID_1477_" d="m105.438 43.44h30v212.491h-30z" fill="#596c76"/><path id="XMLID_1569_" d="m120.466 43.44h14.972v212.491h-14.972z" fill="#3b4b51"/><path id="XMLID_1468_" d="m120.466 452.093c-31.15 0-56.402-25.252-56.402-56.401v-83.456c0-31.15 25.252-56.401 56.401-56.401 31.15 0 56.401 25.252 56.401 56.401v83.456c.002 31.149-25.25 56.401-56.4 56.401z" fill="#ffc473"/><path id="XMLID_807_" d="m120.466 255.834v196.259c31.15 0 56.402-25.252 56.402-56.401v-83.456c0-31.15-25.252-56.402-56.402-56.402z" fill="#ff9f00"/><path id="XMLID_1469_" d="m120.467 467.093c-39.371 0-71.402-32.031-71.402-71.402v-83.456c0-39.371 32.03-71.401 71.401-71.401s71.402 32.03 71.402 71.401v83.456c0 39.372-32.03 71.402-71.401 71.402zm0-196.259c-22.829 0-41.402 18.573-41.402 41.401v83.456c0 22.829 18.572 41.402 41.401 41.402h.001c22.829 0 41.401-18.573 41.401-41.402v-83.456c0-22.828-18.572-41.401-41.401-41.401z" fill="#3b4b51"/><path id="XMLID_818_" d="m105.466 353.963h30v44.938h-30z" fill="#ff9f00"/><path id="XMLID_523_" d="m120.466 353.963h15v44.938h-15z" fill="#ff8700"/><path id="XMLID_339_" d="m120.466 240.834v30c22.829 0 41.402 18.573 41.402 41.401v83.456c0 22.829-18.572 41.402-41.401 41.402v30c39.371 0 71.402-32.031 71.402-71.402v-83.456c-.001-39.371-32.032-71.401-71.403-71.401z" fill="#292929"/><path id="XMLID_860_" d="m480.5 43.473c0 20.806-16.927 37.733-37.733 37.733-20.729 0-37.669-16.957-37.761-37.799l-30 .066c0 20.933-16.914 37.962-37.705 37.962-20.807 0-37.733-16.927-37.733-37.733h-30v229.636l51.784 141.716h137.364l51.784-141.716v-229.865z" fill="#7a8b97"/><path id="XMLID_858_" d="m480.5 43.473c0 20.806-16.927 37.733-37.733 37.733-20.729 0-37.669-16.957-37.761-37.799l-14.972.033v371.615h68.682l51.784-141.717v-229.865z" fill="#596c76"/><path id="XMLID_857_" d="m375.006 43.44h30v212.491h-30z" fill="#596c76"/><path id="XMLID_855_" d="m390.034 43.44h14.972v212.491h-14.972z" fill="#3b4b51"/><path id="XMLID_850_" d="m390.034 452.093c-31.15 0-56.402-25.252-56.402-56.401v-83.456c0-31.15 25.252-56.401 56.401-56.401 31.15 0 56.401 25.252 56.401 56.401v83.456c.001 31.149-25.251 56.401-56.4 56.401z" fill="#ffc473"/><path id="XMLID_848_" d="m390.034 255.834v196.259c31.15 0 56.402-25.252 56.402-56.401v-83.456c-.001-31.15-25.253-56.402-56.402-56.402z" fill="#ff9f00"/><path id="XMLID_844_" d="m390.034 467.093c-39.371 0-71.402-32.031-71.402-71.402v-83.456c0-39.371 32.03-71.401 71.401-71.401s71.402 32.03 71.402 71.401v83.456c.001 39.372-32.03 71.402-71.401 71.402zm0-196.259c-22.829 0-41.402 18.573-41.402 41.401v83.456c0 22.829 18.572 41.402 41.401 41.402h.001c22.829 0 41.401-18.573 41.401-41.402v-83.456c.001-22.828-18.572-41.401-41.401-41.401z" fill="#3b4b51"/><path id="XMLID_843_" d="m375.033 353.963h30v44.938h-30z" fill="#ff9f00"/><path id="XMLID_57_" d="m390.034 353.963h15v44.938h-15z" fill="#ff8700"/><path id="XMLID_56_" d="m390.034 240.834v30c22.829 0 41.401 18.573 41.401 41.401v83.456c0 22.829-18.572 41.402-41.401 41.402v30c39.371 0 71.401-32.031 71.401-71.402v-83.456c.001-39.371-32.03-71.401-71.401-71.401z" fill="#292929"/></g></svg>