<svg id="Capa_1" enable-background="new 0 0 510 510" height="512" viewBox="0 0 510 510" width="512" xmlns="http://www.w3.org/2000/svg" xmlns:xlink="http://www.w3.org/1999/xlink"><linearGradient id="lg1"><stop offset="0" stop-color="#9cf8d2"/><stop offset=".7542" stop-color="#00c285"/><stop offset="1" stop-color="#006e66"/></linearGradient><linearGradient id="SVGID_1_" gradientUnits="userSpaceOnUse" x1="-24.869" x2="300.371" xlink:href="#lg1" y1="293.454" y2="293.454"/><linearGradient id="SVGID_2_" gradientUnits="userSpaceOnUse" x1="-83.823" x2="268.19" xlink:href="#lg1" y1="293.451" y2="293.451"/><linearGradient id="lg2"><stop offset="0" stop-color="#fff9df"/><stop offset=".593" stop-color="#ffe177"/><stop offset="1" stop-color="#feb137"/></linearGradient><linearGradient id="SVGID_3_" gradientUnits="userSpaceOnUse" x1="-5.117" x2="245.849" xlink:href="#lg2" y1="242.665" y2="242.665"/><linearGradient id="SVGID_4_" gradientUnits="userSpaceOnUse" x1="-59.823" x2="234.802" xlink:href="#lg2" y1="234.511" y2="234.511"/><linearGradient id="SVGID_5_" gradientUnits="userSpaceOnUse" x1="229.823" x2="531.525" xlink:href="#lg1" y1="216.55" y2="216.55"/><linearGradient id="SVGID_6_" gradientUnits="userSpaceOnUse" x1="205.823" x2="487.172" xlink:href="#lg1" y1="216.546" y2="216.546"/><linearGradient id="SVGID_7_" gradientUnits="userSpaceOnUse" x1="230.823" x2="514.019" xlink:href="#lg2" y1="165.761" y2="165.761"/><linearGradient id="SVGID_8_" gradientUnits="userSpaceOnUse" x1="92.823" x2="493.484" xlink:href="#lg2" y1="165.761" y2="165.761"/><g><g><path d="m228.658 365.814c-8.388-46.16-6.211-93.62 6.37-138.818 5.158-18.532 6.051-37.993 2.612-56.92-11.2-61.635-70.245-102.52-131.88-91.32-61.635 11.2-102.52 70.245-91.32 131.88l40.74 224.198c9.036 49.726 56.672 82.711 106.398 73.675 49.726-9.036 82.711-56.672 73.675-106.398z" fill="url(#SVGID_1_)"/><path d="m229.887 372.584-1.23-6.77c-3.85-21.21-5.48-42.69-4.89-64.1.69-25.19 4.46-50.29 11.26-74.72 3.1-11.15 4.66-22.63 4.66-34.14 0-7.62-.68-15.24-2.05-22.78-9.95-54.77-57.7-93.17-111.47-93.17-6.61 0-13.31.58-20.05 1.79 27.608 4.969 52.348 20.096 69.424 42.006l-120.407 16.06c-9.577 1.306-16.281 10.128-14.975 19.705s10.128 16.281 19.705 14.975l117.951-15.733c9.308-1.241 18.077 4.961 19.771 14.197.01.057.021.113.031.17 1.239 6.818 1.908 13.702 2.026 20.592l-36.975 5.006c-7.953-12.47-18.127-23.888-31.82-23.888-17.102 0-28.723 17.824-37.377 33.256l-28.496 3.858c-9.577 1.306-16.281 10.128-14.975 19.705s10.128 16.281 19.705 14.975l1.943-.263-39 67.549 9.68 53.24 28.528-49.414c2.676 1.04 5.643 1.441 8.688 1.025l84.241-11.49c10.361-1.413 19.69 6.388 20.132 16.835.279 6.609.65 13.544 1.111 18.422l-99.92 13.629c-9.719 1.326-16.889 10.405-15.381 20.098 1.462 9.4 10.191 15.935 19.657 14.644l83.938-11.449c9.41-1.284 18.163 5.068 19.862 14.412l2.054 11.297c.563 3.111.946 6.21 1.189 9.294l-101.481 13.843c-9.719 1.326-16.889 10.405-15.381 20.098 1.462 9.4 10.191 15.935 19.657 14.644l92.816-12.66c-9.864 29.59-34.577 53.25-66.891 60.442 11.63 2.62 23.96 3 36.43.73 44.2-8.03 75.17-46.55 75.17-89.93 0-5.43-.49-10.93-1.49-16.46zm-138.28-93.838 23.881-41.366 28.428-3.849 20.447 35.291z" fill="url(#SVGID_2_)"/><path d="m17.487 341.598c-2.969 0-5.978-.756-8.734-2.348-8.37-4.833-11.238-15.535-6.405-23.905l84.37-146.13c9.211-15.956 25.709-25.482 44.13-25.482s34.918 9.526 44.13 25.483l74.959 129.819c1.537 2.66 2.345 5.678 2.345 8.75 0 9.665-7.835 17.505-17.5 17.505-6.662 0-12.454-3.72-15.411-9.197l-74.705-129.378c-4.16-7.205-11.05-7.983-13.819-7.983-2.77 0-9.66.778-13.819 7.982l-84.37 146.131c-3.241 5.614-9.124 8.753-15.171 8.753z" fill="url(#SVGID_3_)"/><g><path d="m249.937 299.034-74.959-129.819c-9.212-15.957-25.709-25.483-44.13-25.483-4.298 0-8.485.539-12.506 1.537 13.211 3.279 24.562 11.713 31.625 23.946l74.959 129.819c1.537 2.66 2.345 5.678 2.345 8.75 0 4.764-1.91 9.079-4.998 12.236 3.177 3.248 7.605 5.269 12.509 5.269 9.665 0 17.5-7.84 17.5-17.505.001-3.072-.808-6.09-2.345-8.75z" fill="url(#SVGID_4_)"/></g></g><g><path d="m281.342 288.91c8.388-46.16 6.211-93.62-6.37-138.818-5.158-18.532-6.051-37.993-2.612-56.92 11.201-61.635 70.245-102.52 131.88-91.32 61.635 11.2 102.52 70.245 91.32 131.88l-40.74 224.198c-9.036 49.726-56.672 82.711-106.398 73.675-49.726-9.036-82.711-56.672-73.675-106.398z" fill="url(#SVGID_5_)"/><path d="m404.243 1.85c-6.86-1.25-13.68-1.85-20.41-1.85-6.77 0-13.45.61-19.97 1.79.12.02.24.04.36.06 34.437 6.256 62.393 27.465 78.411 55.71l-110.036-14.677c-9.597-1.28-17.449 5.594-17.449 15.276 0 9.739 7.898 18.761 17.552 20.049l106.274 14.175c10.431 1.391 18.343 10.222 18.417 20.745 0 .065.001.129.001.192 0 6.73-.6 13.55-1.85 20.41v.002c-1.693-.857-3.546-1.467-5.532-1.738l-33.893-4.589c-8.611-15.259-20.131-32.525-36.965-32.525-13.465 0-23.525 11.042-31.418 23.267l-29.915-4.05c-9.616-1.302-17.483 5.572-17.483 15.276 0 9.723 7.883 18.745 17.518 20.049l11.044 1.495-42.665 73.893c.59 21.41-1.04 42.89-4.89 64.1l-1.23 6.77c4.54-1.31 8.31-4.41 10.51-8.49l36.501-63.21c.163.045.321.102.493.126 0 0 55.04 7.491 86.83 11.811 11.983 1.628 20.176 12.924 18.015 24.822l-2.805 15.44-92.013-12.55c-9.625-1.313-17.501 5.561-17.501 15.276 0 9.714 7.875 18.737 17.5 20.049l63.773 8.698c11.978 1.634 20.173 12.927 18.013 24.821l-2.799 15.408-86.166-11.753c-9.719-1.326-19.058 5.502-20.202 15.245-1.109 9.448 5.551 18.082 15.017 19.373l81.655 11.137c-12.247 24.998-35.287 42.955-62.1 48.987 1.19.27 2.38.51 3.59.73 49.72 9.04 97.36-23.94 106.4-73.67l12.85-70.73 9.68-53.24 18.21-100.23c1.25-6.86 1.85-13.68 1.85-20.41-.002-53.76-38.402-101.52-93.172-111.47zm-37.703 154.164 27.549 3.73 23.879 41.36-71.967-9.816c.001 0 20.119-34.72 20.539-35.274z" fill="url(#SVGID_6_)"/><path d="m492.513 264.693c2.969 0 5.978-.756 8.734-2.348 8.37-4.833 11.238-15.535 6.405-23.905l-84.37-146.13c-9.211-15.956-25.709-25.482-44.13-25.482s-34.918 9.526-44.13 25.483l-74.959 129.819c-1.537 2.66-2.345 5.678-2.345 8.75 0 9.665 7.835 17.505 17.5 17.505 6.662 0 12.454-3.72 15.411-9.197l74.705-129.378c4.16-7.205 11.05-7.983 13.819-7.983 2.77 0 9.66.778 13.819 7.982l84.371 146.131c3.24 5.615 9.123 8.753 15.17 8.753z" fill="url(#SVGID_7_)"/><g><path d="m507.652 238.44-84.37-146.13c-9.211-15.956-25.709-25.482-44.13-25.482-4.298 0-8.485.539-12.505 1.537 13.211 3.279 24.563 11.713 31.625 23.945l84.37 146.13c4.015 6.955 2.7 15.509-2.656 20.979 3.329 3.411 7.878 5.274 12.528 5.274 2.969 0 5.978-.756 8.734-2.348 8.369-4.832 11.237-15.534 6.404-23.905z" fill="url(#SVGID_8_)"/></g></g></g></svg>