<?xml version="1.0" encoding="UTF-8" standalone="no"?>
<svg
   xmlns:dc="http://purl.org/dc/elements/1.1/"
   xmlns:cc="http://creativecommons.org/ns#"
   xmlns:rdf="http://www.w3.org/1999/02/22-rdf-syntax-ns#"
   xmlns:svg="http://www.w3.org/2000/svg"
   xmlns="http://www.w3.org/2000/svg"
   xmlns:sodipodi="http://sodipodi.sourceforge.net/DTD/sodipodi-0.dtd"
   xmlns:inkscape="http://www.inkscape.org/namespaces/inkscape"
   inkscape:version="1.0 (4035a4fb49, 2020-05-01)"
   height="351.66199"
   width="512.00055"
   sodipodi:docname="folder.svg"
   xml:space="preserve"
   viewBox="0 0 512.00057 351.662"
   y="0px"
   x="0px"
   id="Capa_1"
   version="1.1"><metadata
   id="metadata57"><rdf:RDF><cc:Work
       rdf:about=""><dc:format>image/svg+xml</dc:format><dc:type
         rdf:resource="http://purl.org/dc/dcmitype/StillImage" /></cc:Work></rdf:RDF></metadata><defs
   id="defs55" /><sodipodi:namedview
   inkscape:current-layer="Capa_1"
   inkscape:window-maximized="1"
   inkscape:window-y="-8"
   inkscape:window-x="-8"
   inkscape:cy="175.83149"
   inkscape:cx="256.00049"
   inkscape:zoom="1.616264"
   showgrid="false"
   id="namedview53"
   inkscape:window-height="1017"
   inkscape:window-width="1920"
   inkscape:pageshadow="2"
   inkscape:pageopacity="0"
   guidetolerance="10"
   gridtolerance="10"
   objecttolerance="10"
   borderopacity="1"
   bordercolor="#666666"
   pagecolor="#ffffff" />






<g
   transform="translate(0,-80.169)"
   id="g65"><path
     style="fill:#f6d83e"
     d="M 431.701,113.806 H 180.426 L 175.352,92.867 C 173.547,85.416 166.876,80.169 159.21,80.169 H 59.03 c -7.666,0 -14.336,5.247 -16.142,12.698 l -5.074,20.939 H 16.831 C 7.536,113.806 0,121.341 0,130.637 v 284.362 c 0,9.296 7.536,16.832 16.831,16.832 H 431.7 c 9.296,0 16.832,-7.536 16.832,-16.832 V 130.637 c 0.001,-9.296 -7.535,-16.831 -16.831,-16.831 z"
     id="path2" /><path
     style="fill:#ffffff"
     d="M 413.083,412.421 H 37.042 c -6.862,0 -12.424,-5.562 -12.424,-12.424 V 149.403 c 0,-6.861 5.562,-12.424 12.424,-12.424 h 376.041 c 6.862,0 12.424,5.562 12.424,12.424 v 250.594 c 0,6.861 -5.562,12.424 -12.424,12.424 z"
     id="path4" /><path
     style="opacity:0.1;enable-background:new"
     d="M 448.533,143.872 H 63.443 c -11.092,0 -20.771,7.523 -23.51,18.271 L 0,372.653 v 42.346 c 0,9.296 7.536,16.832 16.831,16.832 H 431.7 c 9.296,0 16.832,-7.536 16.832,-16.832 V 143.872 Z"
     id="path6" /><path
     style="fill:#f6d83e"
     d="M 432.481,431.831 H 15.886 c -8.619,0 -14.929,-8.12 -12.802,-16.472 L 62.393,182.545 c 2.738,-10.749 12.418,-18.271 23.51,-18.271 h 413.578 c 8.164,0 14.141,7.691 12.126,15.602 L 451.11,417.353 c -2.171,8.517 -9.84,14.478 -18.629,14.478 z"
     id="path8" /><path
     style="opacity:0.05;enable-background:new"
     d="M 499.481,164.274 H 460.68 c 8.164,0 14.141,7.691 12.126,15.602 l -60.497,237.477 c -2.17,8.517 -9.839,14.478 -18.628,14.478 h 38.801 c 8.789,0 16.459,-5.961 18.628,-14.478 l 60.497,-237.477 c 2.015,-7.911 -3.963,-15.602 -12.126,-15.602 z"
     id="path18" /><path
     style="opacity:0.05;enable-background:new"
     d="m 12.093,379.997 -9.008,35.362 c -2.128,8.352 4.183,16.472 12.802,16.472 h 416.594 c 8.789,0 16.459,-5.961 18.628,-14.478 l 9.516,-37.356 z"
     id="path20" /></g>
<g
   transform="translate(0,-80.169)"
   id="g22">
</g>
<g
   transform="translate(0,-80.169)"
   id="g24">
</g>
<g
   transform="translate(0,-80.169)"
   id="g26">
</g>
<g
   transform="translate(0,-80.169)"
   id="g28">
</g>
<g
   transform="translate(0,-80.169)"
   id="g30">
</g>
<g
   transform="translate(0,-80.169)"
   id="g32">
</g>
<g
   transform="translate(0,-80.169)"
   id="g34">
</g>
<g
   transform="translate(0,-80.169)"
   id="g36">
</g>
<g
   transform="translate(0,-80.169)"
   id="g38">
</g>
<g
   transform="translate(0,-80.169)"
   id="g40">
</g>
<g
   transform="translate(0,-80.169)"
   id="g42">
</g>
<g
   transform="translate(0,-80.169)"
   id="g44">
</g>
<g
   transform="translate(0,-80.169)"
   id="g46">
</g>
<g
   transform="translate(0,-80.169)"
   id="g48">
</g>
<g
   transform="translate(0,-80.169)"
   id="g50">
</g>
</svg>
