<?xml version="1.0" encoding="UTF-8" standalone="no"?>
<svg
   xmlns:dc="http://purl.org/dc/elements/1.1/"
   xmlns:cc="http://creativecommons.org/ns#"
   xmlns:rdf="http://www.w3.org/1999/02/22-rdf-syntax-ns#"
   xmlns:svg="http://www.w3.org/2000/svg"
   xmlns="http://www.w3.org/2000/svg"
   xmlns:sodipodi="http://sodipodi.sourceforge.net/DTD/sodipodi-0.dtd"
   xmlns:inkscape="http://www.inkscape.org/namespaces/inkscape"
   inkscape:version="1.0 (4035a4fb49, 2020-05-01)"
   height="511.99951"
   width="327.07394"
   sodipodi:docname="kite.svg"
   xml:space="preserve"
   viewBox="0 0 327.07395 511.99952"
   y="0px"
   x="0px"
   id="Capa_1"
   version="1.1"><metadata
   id="metadata75"><rdf:RDF><cc:Work
       rdf:about=""><dc:format>image/svg+xml</dc:format><dc:type
         rdf:resource="http://purl.org/dc/dcmitype/StillImage" /></cc:Work></rdf:RDF></metadata><defs
   id="defs73" /><sodipodi:namedview
   inkscape:current-layer="Capa_1"
   inkscape:window-maximized="1"
   inkscape:window-y="-8"
   inkscape:window-x="-8"
   inkscape:cy="361.63828"
   inkscape:cx="-244.45977"
   inkscape:zoom="0.57143782"
   showgrid="false"
   id="namedview71"
   inkscape:window-height="1017"
   inkscape:window-width="1920"
   inkscape:pageshadow="2"
   inkscape:pageopacity="0"
   guidetolerance="10"
   gridtolerance="10"
   objecttolerance="10"
   borderopacity="1"
   bordercolor="#666666"
   pagecolor="#ffffff" />
<g
   transform="translate(-92.463063,5e-4)"
   id="g38"
   style="opacity:0.3">
	<ellipse
   id="ellipse34"
   ry="8.7030001"
   rx="20.059999"
   cy="157.05901"
   cx="192.789"
   style="fill:#f15b70" />
	<ellipse
   id="ellipse36"
   ry="8.7030001"
   rx="20.059999"
   cy="157.05901"
   cx="286.509"
   style="fill:#f15b70" />
</g><g
   transform="translate(-92.463063,5e-4)"
   id="g32">
	<path
   id="path26"
   d="m 192.791,145.202 c -4.143,0 -7.5,-3.358 -7.5,-7.5 v -7.778 c 0,-4.142 3.357,-7.5 7.5,-7.5 4.143,0 7.5,3.358 7.5,7.5 v 7.778 c 0,4.142 -3.357,7.5 -7.5,7.5 z"
   style="fill:#4a5058" />
	<path
   id="path28"
   d="m 286.505,145.202 c -4.143,0 -7.5,-3.358 -7.5,-7.5 v -7.778 c 0,-4.142 3.357,-7.5 7.5,-7.5 4.143,0 7.5,3.358 7.5,7.5 v 7.778 c 0,4.142 -3.358,7.5 -7.5,7.5 z"
   style="fill:#4a5058" />
	<path
   id="path30"
   d="m 239.648,151.175 c -6.902,0 -13.467,-2.989 -18.009,-8.201 -2.722,-3.123 -2.396,-7.86 0.727,-10.582 3.122,-2.721 7.859,-2.397 10.582,0.727 1.692,1.942 4.135,3.056 6.7,3.056 2.565,0 5.007,-1.114 6.699,-3.056 2.722,-3.122 7.46,-3.448 10.582,-0.727 3.122,2.722 3.448,7.459 0.727,10.582 -4.542,5.212 -11.105,8.201 -18.008,8.201 z"
   style="fill:#4a5058" />
</g><path
   id="path2"
   d="m 218.50594,511.9995 c -43.462,0 -78.82,-35.359 -78.82,-78.821 v -108.017 c 0,-4.142 3.357,-7.5 7.5,-7.5 4.143,0 7.5,3.358 7.5,7.5 v 108.017 c 0,35.191 28.63,63.821 63.82,63.821 35.191,0 63.82,-28.63 63.82,-63.821 v -153.64 c -0.004,-26.208 8.286,-51.111 23.975,-72.018 2.486,-3.314 7.188,-3.983 10.501,-1.498 3.313,2.486 3.983,7.188 1.497,10.501 -13.724,18.288 -20.977,40.078 -20.973,63.014 v 153.641 c 0,43.462 -35.358,78.821 -78.82,78.821 z"
   style="fill:#4a5058" />
<path
   id="path4"
   d="m 290.06894,153.5305 -117.26,194.39 c -11.636,19.29 -39.61,19.29 -51.247,0 L 4.3019373,153.5305 c -7.34,-12.168 -5.11000001,-27.819 5.335,-37.453 L 126.89694,7.9275 c 11.46,-10.57 29.116,-10.57 40.576,0 l 117.26,108.15 c 10.446,9.634 12.675,25.286 5.336,37.453 z"
   style="fill:#9bd3e0" />
<g
   transform="translate(-92.463063,5e-4)"
   id="g14"
   style="opacity:0.1">
	<path
   id="path6"
   d="m 239.648,300.902 c -4.143,0 -7.5,-3.358 -7.5,-7.5 v -81.38 c 0,-4.142 3.357,-7.5 7.5,-7.5 4.143,0 7.5,3.358 7.5,7.5 v 81.38 c 0,4.142 -3.357,7.5 -7.5,7.5 z" />
	<path
   id="path8"
   d="m 239.648,93.768 c -4.143,0 -7.5,-3.358 -7.5,-7.5 V 49.544 c 0,-4.142 3.357,-7.5 7.5,-7.5 4.143,0 7.5,3.358 7.5,7.5 v 36.724 c 0,4.142 -3.357,7.5 -7.5,7.5 z" />
	<path
   id="path10"
   d="m 144.773,145.051 h -22.66 c -4.143,0 -7.5,-3.358 -7.5,-7.5 0,-4.142 3.357,-7.5 7.5,-7.5 h 22.66 c 4.143,0 7.5,3.358 7.5,7.5 0,4.142 -3.357,7.5 -7.5,7.5 z" />
	<path
   id="path12"
   d="m 357.183,145.051 h -22.66 c -4.143,0 -7.5,-3.358 -7.5,-7.5 0,-4.142 3.357,-7.5 7.5,-7.5 h 22.66 c 4.143,0 7.5,3.358 7.5,7.5 0,4.142 -3.358,7.5 -7.5,7.5 z" />
</g>
<path
   id="path16"
   d="m 284.73294,116.0775 -117.26,-108.151 c -9.337,-8.611 -22.785,-10.205 -33.646,-4.785 2.47,1.233 4.807,2.826 6.93,4.785 l 117.26,108.15 c 10.446,9.634 12.675,25.286 5.335,37.453 l -117.26,194.39 c -3.121,5.175 -7.424,8.947 -12.266,11.346 13.208,6.543 30.466,2.77 38.981,-11.346 l 117.26,-194.39 c 7.341,-12.166 5.112,-27.818 -5.334,-37.452 z"
   style="opacity:0.05;enable-background:new" />
<path
   id="path18"
   d="m 286.12394,309.6355 -16.466,-13.782 c -6.786,-5.68 -17.116,-0.855 -17.116,7.994 v 31.302 c 0,8.849 10.33,13.674 17.116,7.994 l 16.466,-13.782 c 2.132,-1.784 5.235,-1.784 7.367,0 l 16.467,13.782 c 6.786,5.679 17.116,0.855 17.116,-7.994 v -31.302 c 0,-8.849 -10.33,-13.674 -17.116,-7.994 l -16.467,13.782 c -2.132,1.784 -5.236,1.784 -7.367,0 z"
   style="fill:#f15b70" />
<path
   id="path20"
   d="m 312.77794,294.1515 c 3.719,1.474 6.601,5.023 6.601,9.696 v 31.302 c 0,4.674 -2.882,8.223 -6.601,9.696 6.496,2.638 14.294,-2.008 14.294,-9.696 v -31.302 c 0,-7.689 -7.798,-12.335 -14.294,-9.696 z"
   style="opacity:0.1;enable-background:new" />
<path
   id="path22"
   d="m 286.12394,381.4255 -16.466,-13.782 c -6.786,-5.679 -17.116,-0.855 -17.116,7.994 v 31.302 c 0,8.849 10.33,13.674 17.116,7.994 l 16.466,-13.782 c 2.132,-1.784 5.235,-1.784 7.367,0 l 16.467,13.782 c 6.786,5.679 17.116,0.855 17.116,-7.994 v -31.302 c 0,-8.849 -10.33,-13.674 -17.116,-7.994 l -16.467,13.782 c -2.132,1.784 -5.236,1.784 -7.367,0 z"
   style="fill:#f15b70" />
<path
   id="path24"
   d="m 312.77794,365.9415 c 3.719,1.474 6.601,5.023 6.601,9.697 v 31.302 c 0,4.673 -2.882,8.223 -6.601,9.696 6.496,2.638 14.294,-2.008 14.294,-9.696 v -31.302 c 0,-7.689 -7.798,-12.335 -14.294,-9.697 z"
   style="opacity:0.1;enable-background:new" />


<g
   transform="translate(-92.463063,5e-4)"
   id="g40">
</g>
<g
   transform="translate(-92.463063,5e-4)"
   id="g42">
</g>
<g
   transform="translate(-92.463063,5e-4)"
   id="g44">
</g>
<g
   transform="translate(-92.463063,5e-4)"
   id="g46">
</g>
<g
   transform="translate(-92.463063,5e-4)"
   id="g48">
</g>
<g
   transform="translate(-92.463063,5e-4)"
   id="g50">
</g>
<g
   transform="translate(-92.463063,5e-4)"
   id="g52">
</g>
<g
   transform="translate(-92.463063,5e-4)"
   id="g54">
</g>
<g
   transform="translate(-92.463063,5e-4)"
   id="g56">
</g>
<g
   transform="translate(-92.463063,5e-4)"
   id="g58">
</g>
<g
   transform="translate(-92.463063,5e-4)"
   id="g60">
</g>
<g
   transform="translate(-92.463063,5e-4)"
   id="g62">
</g>
<g
   transform="translate(-92.463063,5e-4)"
   id="g64">
</g>
<g
   transform="translate(-92.463063,5e-4)"
   id="g66">
</g>
<g
   transform="translate(-92.463063,5e-4)"
   id="g68">
</g>
</svg>
