<?xml version="1.0" encoding="UTF-8" standalone="no"?>
<svg
   xmlns:dc="http://purl.org/dc/elements/1.1/"
   xmlns:cc="http://creativecommons.org/ns#"
   xmlns:rdf="http://www.w3.org/1999/02/22-rdf-syntax-ns#"
   xmlns:svg="http://www.w3.org/2000/svg"
   xmlns="http://www.w3.org/2000/svg"
   xmlns:sodipodi="http://sodipodi.sourceforge.net/DTD/sodipodi-0.dtd"
   xmlns:inkscape="http://www.inkscape.org/namespaces/inkscape"
   inkscape:version="1.0 (4035a4fb49, 2020-05-01)"
   height="512"
   width="505.07999"
   sodipodi:docname="rain.svg"
   xml:space="preserve"
   viewBox="0 0 505.07999 512"
   y="0px"
   x="0px"
   id="Capa_1"
   version="1.1"><metadata
   id="metadata69"><rdf:RDF><cc:Work
       rdf:about=""><dc:format>image/svg+xml</dc:format><dc:type
         rdf:resource="http://purl.org/dc/dcmitype/StillImage" /></cc:Work></rdf:RDF></metadata><defs
   id="defs67" /><sodipodi:namedview
   inkscape:current-layer="Capa_1"
   inkscape:window-maximized="1"
   inkscape:window-y="-8"
   inkscape:window-x="-8"
   inkscape:cy="417.05639"
   inkscape:cx="298.27133"
   inkscape:zoom="0.5714367"
   showgrid="false"
   id="namedview65"
   inkscape:window-height="1017"
   inkscape:window-width="1920"
   inkscape:pageshadow="2"
   inkscape:pageopacity="0"
   guidetolerance="10"
   gridtolerance="10"
   objecttolerance="10"
   borderopacity="1"
   bordercolor="#666666"
   pagecolor="#ffffff" />





<g
   transform="translate(-3.46)"
   id="g80"><path
     style="fill:#e8e8e8"
     d="m 435.582,118.371 c -9.553,-35.461 -41.92,-61.567 -80.399,-61.567 -8.915,0 -17.497,1.416 -25.55,4.01 C 305.644,24.194 264.254,0 217.206,0 149.09,0 92.825,50.706 84.078,116.43 38.02,126.197 3.46,167.088 3.46,216.055 c 0,56.249 45.599,101.848 101.848,101.848 h 301.384 c 56.249,0 101.848,-45.599 101.848,-101.848 0,-46.212 -30.782,-85.229 -72.958,-97.684 z"
     id="path2" /><path
     style="opacity:0.05;enable-background:new"
     d="m 450.633,124.161 c 14.968,17.728 24.004,40.627 24.004,65.646 0,56.249 -45.599,101.848 -101.848,101.848 H 71.405 c -15.742,0 -30.649,-3.574 -43.957,-9.951 18.682,22.135 46.627,36.2 77.86,36.2 h 301.384 c 56.249,0 101.848,-45.599 101.848,-101.848 0,-40.512 -23.657,-75.49 -57.907,-91.895 z"
     id="path4" /><g
     id="g12">
	<path
   style="fill:#9bd3e0"
   d="m 110.924,356.564 c 3.735,-4.749 10.936,-4.749 14.671,0 12.138,15.431 35.076,47.859 35.076,72.555 0,23.424 -18.988,42.412 -42.412,42.412 -23.424,0 -42.412,-18.989 -42.412,-42.412 0.001,-24.696 22.939,-57.124 35.077,-72.555 z"
   id="path6" />
	<path
   style="fill:#9bd3e0"
   d="m 382.449,345.632 c 3.735,-4.749 10.936,-4.749 14.671,0 12.138,15.431 35.077,47.859 35.077,72.555 0,23.424 -18.989,42.412 -42.412,42.412 -23.424,0 -42.412,-18.988 -42.412,-42.412 -10e-4,-24.696 22.938,-57.124 35.076,-72.555 z"
   id="path8" />
	<path
   style="fill:#9bd3e0"
   d="m 247.676,397.033 c 3.735,-4.749 10.936,-4.749 14.671,0 12.138,15.431 35.077,47.859 35.077,72.555 0,23.424 -18.988,42.412 -42.412,42.412 -23.424,0 -42.412,-18.988 -42.412,-42.412 -0.001,-24.696 22.938,-57.125 35.076,-72.555 z"
   id="path10" />
</g><path
     style="opacity:0.05;enable-background:new"
     d="m 125.596,356.564 c -1.933,-2.458 -4.795,-3.632 -7.623,-3.546 12.473,16.944 29.458,43.915 29.458,65.17 0,23.423 -18.989,42.412 -42.412,42.412 -7.155,0 -13.892,-1.779 -19.805,-4.908 7.774,9.656 19.685,15.84 33.046,15.84 23.424,0 42.412,-18.989 42.412,-42.412 0,-24.697 -22.938,-57.125 -35.076,-72.556 z"
     id="path14" /><path
     style="opacity:0.05;enable-background:new"
     d="m 262.347,397.032 c -1.933,-2.458 -4.794,-3.632 -7.624,-3.546 12.473,16.945 29.458,43.915 29.458,65.17 0,23.423 -18.989,42.412 -42.412,42.412 -7.155,0 -13.892,-1.779 -19.805,-4.908 7.774,9.656 19.685,15.84 33.046,15.84 23.424,0 42.412,-18.988 42.412,-42.412 10e-4,-24.696 -22.937,-57.125 -35.075,-72.556 z"
     id="path16" /><path
     style="opacity:0.05;enable-background:new"
     d="m 397.12,345.632 c -1.933,-2.458 -4.795,-3.632 -7.624,-3.546 12.473,16.945 29.458,43.915 29.458,65.17 0,23.423 -18.989,42.412 -42.412,42.412 -7.155,0 -13.892,-1.779 -19.805,-4.908 7.774,9.656 19.685,15.84 33.046,15.84 23.424,0 42.412,-18.988 42.412,-42.412 0.002,-24.697 -22.937,-57.125 -35.075,-72.556 z"
     id="path18" /></g>


<g
   transform="translate(-3.46)"
   id="g34">
</g>
<g
   transform="translate(-3.46)"
   id="g36">
</g>
<g
   transform="translate(-3.46)"
   id="g38">
</g>
<g
   transform="translate(-3.46)"
   id="g40">
</g>
<g
   transform="translate(-3.46)"
   id="g42">
</g>
<g
   transform="translate(-3.46)"
   id="g44">
</g>
<g
   transform="translate(-3.46)"
   id="g46">
</g>
<g
   transform="translate(-3.46)"
   id="g48">
</g>
<g
   transform="translate(-3.46)"
   id="g50">
</g>
<g
   transform="translate(-3.46)"
   id="g52">
</g>
<g
   transform="translate(-3.46)"
   id="g54">
</g>
<g
   transform="translate(-3.46)"
   id="g56">
</g>
<g
   transform="translate(-3.46)"
   id="g58">
</g>
<g
   transform="translate(-3.46)"
   id="g60">
</g>
<g
   transform="translate(-3.46)"
   id="g62">
</g>
</svg>
