<?xml version="1.0" encoding="UTF-8" standalone="no"?>
<svg
   xmlns:dc="http://purl.org/dc/elements/1.1/"
   xmlns:cc="http://creativecommons.org/ns#"
   xmlns:rdf="http://www.w3.org/1999/02/22-rdf-syntax-ns#"
   xmlns:svg="http://www.w3.org/2000/svg"
   xmlns="http://www.w3.org/2000/svg"
   xmlns:sodipodi="http://sodipodi.sourceforge.net/DTD/sodipodi-0.dtd"
   xmlns:inkscape="http://www.inkscape.org/namespaces/inkscape"
   inkscape:version="1.0 (4035a4fb49, 2020-05-01)"
   height="490.16171"
   width="512.00037"
   sodipodi:docname="sandwich.svg"
   xml:space="preserve"
   viewBox="0 0 512.00037 490.16171"
   y="0px"
   x="0px"
   id="Capa_1"
   version="1.1"><metadata
   id="metadata85"><rdf:RDF><cc:Work
       rdf:about=""><dc:format>image/svg+xml</dc:format><dc:type
         rdf:resource="http://purl.org/dc/dcmitype/StillImage" /></cc:Work></rdf:RDF></metadata><defs
   id="defs83" /><sodipodi:namedview
   inkscape:current-layer="Capa_1"
   inkscape:window-maximized="1"
   inkscape:window-y="-8"
   inkscape:window-x="-8"
   inkscape:cy="245.08072"
   inkscape:cx="256.00004"
   inkscape:zoom="1.6162671"
   showgrid="false"
   id="namedview81"
   inkscape:window-height="1017"
   inkscape:window-width="1920"
   inkscape:pageshadow="2"
   inkscape:pageopacity="0"
   guidetolerance="10"
   gridtolerance="10"
   objecttolerance="10"
   borderopacity="1"
   bordercolor="#666666"
   pagecolor="#ffffff" />

























<g
   transform="translate(4.3558975e-5,-10.919281)"
   id="g126"><g
     id="g48">
	<path
   style="fill:#394049"
   d="m 152.728,235.707 c -4.143,0 -7.5,-3.358 -7.5,-7.5 v -10.811 c 0,-4.142 3.357,-7.5 7.5,-7.5 4.143,0 7.5,3.358 7.5,7.5 v 10.811 c 0,4.143 -3.357,7.5 -7.5,7.5 z"
   id="path42" />
	<path
   style="fill:#394049"
   d="m 348.837,235.707 c -4.143,0 -7.5,-3.358 -7.5,-7.5 v -10.811 c 0,-4.142 3.357,-7.5 7.5,-7.5 4.143,0 7.5,3.358 7.5,7.5 v 10.811 c 0,4.143 -3.358,7.5 -7.5,7.5 z"
   id="path44" />
	<path
   style="fill:#394049"
   d="m 250.783,259.592 c -11.647,0 -22.205,-6.89 -26.896,-17.553 -1.668,-3.792 0.054,-8.217 3.845,-9.885 3.792,-1.667 8.217,0.054 9.886,3.845 2.296,5.22 7.465,8.593 13.166,8.593 5.7,0 10.868,-3.373 13.166,-8.593 1.668,-3.791 6.093,-5.513 9.886,-3.843 3.791,1.669 5.512,6.094 3.843,9.886 -4.694,10.662 -15.25,17.55 -26.896,17.55 z"
   id="path46" />
</g><path
     style="fill:#4fbb74"
     d="M 23.704,170.728 5.485,132.022 C -11.566,95.797 13.043,53.739 52.977,50.857 v 0 c 7.524,-0.543 14.705,-3.365 20.585,-8.09 L 89.174,30.222 C 120.963,4.678 166.267,4.773 197.948,30.451 v 0 c 12.517,10.145 30.147,11.06 43.647,2.265 l 12.658,-8.247 C 283.636,5.325 321.846,6.564 349.928,27.57 v 0 c 8.419,6.298 19.114,8.731 29.43,6.695 l 33.428,-6.598 c 36.373,-7.179 71.046,18.463 74.834,55.344 v 0 c 0.941,9.158 5.25,17.641 12.093,23.8 v 0 c 16.82,15.142 16.296,41.681 -1.108,56.147 l -26.506,22.032 c -7.01,5.827 -15.918,8.871 -25.028,8.554 L 36.603,179.232 c -5.554,-0.194 -10.533,-3.476 -12.899,-8.504 z"
     id="path2" /><circle
     style="fill:#ec8087"
     cx="113.12"
     cy="76.769997"
     r="63"
     id="circle4" /><circle
     style="opacity:0.1;enable-background:new"
     cx="113.12"
     cy="76.769997"
     r="37.360001"
     id="circle6" /><circle
     style="fill:#ec8087"
     cx="395.39999"
     cy="76.769997"
     r="63"
     id="circle8" /><circle
     style="opacity:0.1;enable-background:new"
     cx="395.39999"
     cy="76.769997"
     r="37.360001"
     id="circle10" /><path
     style="opacity:0.1;enable-background:new"
     d="M 437.362,52.929 C 412.244,44.672 386.101,40.485 359.66,40.485 c -26.442,0 -52.585,4.187 -77.702,12.443 -10.079,3.313 -20.567,4.993 -31.176,4.993 -10.609,0 -21.097,-1.68 -31.175,-4.992 -25.118,-8.257 -51.261,-12.444 -77.702,-12.444 -26.442,0 -52.585,4.187 -77.702,12.443 -34.277,11.268 -57.659,42.437 -59.09,78.235 0.129,0.286 0.238,0.574 0.372,0.859 l 18.219,38.706 c 2.366,5.027 7.345,8.31 12.899,8.504 l 410.469,14.314 c 9.11,0.318 18.018,-2.727 25.028,-8.554 l 15.895,-13.212 c 5.499,-11.427 8.529,-24.092 8.529,-37.13 -10e-4,-37.249 -23.776,-70.09 -59.162,-81.721 z"
     id="path12" /><path
     style="fill:#d59c6e"
     d="M 121.691,501.08 C 90.134,501.08 64.46,475.406 64.46,443.849 V 232.88 l -1.865,-0.908 C 34.582,218.334 16.478,189.388 16.478,158.228 c 0,-35.516 22.668,-66.829 56.408,-77.919 23.948,-7.872 48.874,-11.864 74.086,-11.864 25.21,0 50.137,3.992 74.086,11.865 9.609,3.158 19.609,4.759 29.724,4.759 10.115,0 20.116,-1.601 29.725,-4.76 23.948,-7.872 48.874,-11.864 74.086,-11.864 25.21,0 50.136,3.992 74.086,11.865 33.739,11.09 56.407,42.403 56.407,77.918 0,31.16 -18.103,60.107 -46.119,73.746 l -1.863,0.907 V 443.85 c 0,31.557 -25.674,57.231 -57.231,57.231 z"
     id="path14" /><path
     style="fill:#f2dfa6"
     d="m 288.84,105.658 v 0 c -24.721,8.126 -51.393,8.126 -76.114,0 v 0 c -42.712,-14.04 -88.796,-14.04 -131.507,0 v 0 c -22.708,7.464 -38.057,28.666 -38.057,52.57 v 0 c 0,21.171 12.08,40.487 31.115,49.754 l 4.641,2.26 c 7.479,3.641 12.226,11.231 12.226,19.549 V 443.85 c 0,16.871 13.677,30.548 30.548,30.548 h 258.183 c 16.871,0 30.548,-13.677 30.548,-30.548 V 229.791 c 0,-8.319 4.746,-15.908 12.226,-19.549 l 4.641,-2.26 c 19.035,-9.267 31.115,-28.583 31.115,-49.754 v 0 c 0,-23.904 -15.349,-45.105 -38.057,-52.57 v 0 c -42.712,-14.04 -88.796,-14.04 -131.508,0 z"
     id="path16" /><g
     style="opacity:0.1"
     id="g38">
	<circle
   cx="105.61"
   cy="163.91"
   r="7.5100002"
   id="circle18" />
	<circle
   cx="176.13"
   cy="132.25999"
   r="7.5100002"
   id="circle20" />
	<circle
   cx="395.39999"
   cy="139.78"
   r="7.5100002"
   id="circle22" />
	<circle
   cx="293.26001"
   cy="163"
   r="7.5100002"
   id="circle24" />
	<circle
   cx="144.85001"
   cy="366.98001"
   r="7.5100002"
   id="circle26" />
	<circle
   cx="250.78"
   cy="407.82001"
   r="7.5100002"
   id="circle28" />
	<circle
   cx="129.83"
   cy="434.67999"
   r="7.5100002"
   id="circle30" />
	<circle
   cx="339.91"
   cy="340.31"
   r="7.5100002"
   id="circle32" />
	<circle
   cx="218.44"
   cy="318.38"
   r="7.5100002"
   id="circle34" />
	<circle
   cx="359.70001"
   cy="442.19"
   r="7.5100002"
   id="circle36" />
</g><path
     style="opacity:0.1;enable-background:new"
     d="m 428.68,80.309 c -4.785,-1.573 -9.611,-2.984 -14.468,-4.246 18.562,15.452 29.885,38.6 29.885,63.856 0,24.988 -12.215,48.572 -31.382,64.176 -10.453,8.51 -16.551,21.247 -16.593,34.727 l -0.651,206.576 c 0,26.362 -17.685,48.656 -41.809,55.682 h 26.213 c 31.557,0 57.231,-25.674 57.231,-57.231 V 232.88 l 1.863,-0.907 c 28.016,-13.639 46.119,-42.586 46.119,-73.746 -0.001,-35.515 -22.669,-66.828 -56.408,-77.918 z"
     id="path40" /><g
     id="g50">
</g><g
     id="g52">
</g><g
     id="g54">
</g><g
     id="g56">
</g><g
     id="g58">
</g><g
     id="g60">
</g><g
     id="g62">
</g><g
     id="g64">
</g><g
     id="g66">
</g><g
     id="g68">
</g><g
     id="g70">
</g><g
     id="g72">
</g><g
     id="g74">
</g><g
     id="g76">
</g><g
     id="g78">
</g></g>
</svg>
