<?xml version="1.0" encoding="iso-8859-1"?>
<!-- Generator: Adobe Illustrator 19.0.0, SVG Export Plug-In . SVG Version: 6.00 Build 0)  -->
<svg version="1.1" id="Capa_1" xmlns="http://www.w3.org/2000/svg" xmlns:xlink="http://www.w3.org/1999/xlink" x="0px" y="0px"
	 viewBox="0 0 512 512" style="enable-background:new 0 0 512 512;" xml:space="preserve">
<path style="fill:#76C9D2;" d="M0,22.8v466.355c0,20.312,24.558,30.485,38.921,16.122L505.276,38.921
	C519.639,24.558,509.467,0,489.155,0H22.8C10.208,0,0,10.208,0,22.8z M118.171,96.474h131.704c19.331,0,29.011,23.371,15.342,37.04
	L133.514,265.218c-13.669,13.669-37.04,3.988-37.04-15.342V118.172C96.473,106.188,106.188,96.474,118.171,96.474z"/>
<path style="opacity:0.1;enable-background:new    ;" d="M489.238,0.003c-0.47,4.894-2.568,9.756-6.619,13.808L16.264,480.166
	C11.534,484.896,5.7,486.95,0,486.873v2.282c0,20.312,24.559,30.485,38.921,16.122L505.276,38.921
	C519.619,24.579,509.494,0.072,489.238,0.003z"/>
<path style="fill:#394049;" d="M164.146,37c0,4.142,3.357,7.5,7.5,7.5s7.5-3.358,7.5-7.5V0h-15V37z M114.823,19.595
	c0,4.142,3.357,7.5,7.5,7.5s7.5-3.358,7.5-7.5V0h-15V19.595z M65.5,37c0,4.142,3.357,7.5,7.5,7.5s7.5-3.358,7.5-7.5V0h-15V37z
	 M213.468,19.595c0,4.142,3.357,7.5,7.5,7.5s7.5-3.358,7.5-7.5V0h-15V19.595z M361.436,37c0,4.142,3.357,7.5,7.5,7.5
	s7.5-3.358,7.5-7.5V0h-15V37z M410.759,0v19.595c0,4.142,3.357,7.5,7.5,7.5s7.5-3.358,7.5-7.5V0H410.759z M312.113,19.595
	c0,4.142,3.357,7.5,7.5,7.5s7.5-3.358,7.5-7.5V0h-15V19.595z M262.791,37c0,4.142,3.357,7.5,7.5,7.5s7.5-3.358,7.5-7.5V0h-15V37z"/>
<g>
</g>
<g>
</g>
<g>
</g>
<g>
</g>
<g>
</g>
<g>
</g>
<g>
</g>
<g>
</g>
<g>
</g>
<g>
</g>
<g>
</g>
<g>
</g>
<g>
</g>
<g>
</g>
<g>
</g>
</svg>
