<?xml version="1.0" encoding="UTF-8" standalone="no"?>
<svg
   xmlns:dc="http://purl.org/dc/elements/1.1/"
   xmlns:cc="http://creativecommons.org/ns#"
   xmlns:rdf="http://www.w3.org/1999/02/22-rdf-syntax-ns#"
   xmlns:svg="http://www.w3.org/2000/svg"
   xmlns="http://www.w3.org/2000/svg"
   xmlns:sodipodi="http://sodipodi.sourceforge.net/DTD/sodipodi-0.dtd"
   xmlns:inkscape="http://www.inkscape.org/namespaces/inkscape"
   inkscape:version="1.0 (4035a4fb49, 2020-05-01)"
   height="511.99994"
   width="511.99991"
   sodipodi:docname="shovel.svg"
   xml:space="preserve"
   viewBox="0 0 511.99991 511.99994"
   y="0px"
   x="0px"
   id="Capa_1"
   version="1.1"><metadata
   id="metadata71"><rdf:RDF><cc:Work
       rdf:about=""><dc:format>image/svg+xml</dc:format><dc:type
         rdf:resource="http://purl.org/dc/dcmitype/StillImage" /></cc:Work></rdf:RDF></metadata><defs
   id="defs69" /><sodipodi:namedview
   inkscape:current-layer="Capa_1"
   inkscape:window-maximized="1"
   inkscape:window-y="-8"
   inkscape:window-x="-8"
   inkscape:cy="-869.80089"
   inkscape:cx="-1258.874"
   inkscape:zoom="0.20203338"
   showgrid="false"
   id="namedview67"
   inkscape:window-height="1017"
   inkscape:window-width="1920"
   inkscape:pageshadow="2"
   inkscape:pageopacity="0"
   guidetolerance="10"
   gridtolerance="10"
   objecttolerance="10"
   borderopacity="1"
   bordercolor="#666666"
   pagecolor="#ffffff" />
<path
   id="path2"
   d="m 103.96291,511.409 v 0 C 49.102913,506.353 5.6469132,462.897 0.59091321,408.037 v 0 C -3.2240868,366.645 11.571913,325.701 40.963913,296.308 l 43.78,-43.78 c 17.747997,-17.748 46.521997,-17.748 64.269997,0 l 110.458,110.458 c 17.748,17.748 17.748,46.522 0,64.27 l -43.78,43.78 c -29.393,29.393 -70.337,44.188 -111.729,40.373 z"
   style="fill:#dbdcdd" />
<path
   id="path4"
   d="m 259.47191,362.986 -12.457,-12.457 c 17.748,17.748 17.748,46.522 0,64.27 l -43.78,43.78 c -29.393,29.393 -70.337,44.188 -111.728997,40.373 v 0 c -24.325,-2.242 -46.397,-12.044 -63.884,-27.031 18.814,21.953 45.805,36.674 76.339997,39.488 v 0 c 41.392,3.815 82.337,-10.981 111.729,-40.373 l 43.78,-43.78 c 17.749,-17.748 17.749,-46.522 10e-4,-64.27 z"
   style="opacity:0.1;enable-background:new" />
<path
   id="path6"
   d="m 107.24991,485.406 v 0 C 64.444913,481.461 30.538913,447.555 26.593913,404.75 v 0 c -2.976,-32.296 8.568,-64.243 31.501,-87.177 l 34.159,-34.159 c 13.847997,-13.848 36.298997,-13.848 50.146997,0 l 86.185,86.185 c 13.848,13.848 13.848,36.299 0,50.147 l -34.159,34.159 c -22.934,22.934 -54.881,34.478 -87.177,31.501 z"
   style="opacity:0.05;enable-background:new" />
<path
   id="path8"
   d="m 269.44491,284.568 -42.013,-42.013 c -3.937,-3.937 -10.319,-3.937 -14.256,0 l -62.857,62.857 c -3.937,3.937 -3.937,10.319 0,14.256 l 42.013,42.013 c 3.937,3.937 10.319,3.937 14.256,0 l 62.857,-62.857 c 3.937,-3.937 3.937,-10.319 0,-14.256 z"
   style="fill:#dbdcdd" />
<path
   id="path10"
   d="m 269.44491,284.568 -42.013,-42.013 c -3.937,-3.937 -10.319,-3.937 -14.256,0 l -62.857,62.857 c -3.937,3.937 -3.937,10.319 0,14.256 l 42.013,42.013 c 3.937,3.937 10.319,3.937 14.256,0 l 62.857,-62.857 c 3.937,-3.937 3.937,-10.319 0,-14.256 z"
   style="opacity:0.1;enable-background:new" />
<path
   id="path12"
   d="m 269.44491,284.568 -13.029,-13.029 c 3.937,3.937 3.937,10.319 0,14.256 l -62.857,62.857 c -3.937,3.937 -10.32,3.937 -14.256,0 l -28.985,-28.985 v 0.001 l 42.013,42.013 c 3.937,3.937 10.319,3.937 14.256,0 l 62.857,-62.857 c 3.938,-3.937 3.938,-10.319 10e-4,-14.256 z"
   style="opacity:0.1;enable-background:new" />
<rect
   id="rect14"
   height="163.95642"
   width="48.409534"
   style="fill:#a16b4e;stroke-width:0.99999"
   transform="rotate(-135)"
   y="-10.703319"
   x="-386.24496" />
<polygon
   transform="translate(-8.6790227e-5)"
   id="polygon16"
   points="354.674,169.806 270.618,253.862 247.263,230.508 231.324,246.447 265.553,280.676 381.488,164.741 347.259,130.512 331.32,146.452 "
   style="opacity:0.1;enable-background:new" />
<path
   id="path18"
   d="m 498.76991,68.242 -55.012,-55.012 c -17.641,-17.64 -46.242,-17.64 -63.882,0 l -20.071,20.071 c -17.641,17.641 -17.641,46.242 0,63.882 v 0 c 2.487,2.487 2.487,6.518 0,9.005 l -14.063,14.063 c -2.414,2.414 -2.414,6.328 0,8.743 l 37.263,37.263 c 2.414,2.414 6.328,2.414 8.742,0 l 14.063,-14.063 c 2.487,-2.487 6.518,-2.487 9.005,0 v 0 c 17.641,17.641 46.242,17.641 63.883,0 l 20.071,-20.071 c 17.641,-17.64 17.641,-46.241 10e-4,-63.881 z m -43.968,60.057 c -4.436,4.436 -11.655,4.436 -16.091,0 l -55.01,-55.01 c -4.436,-4.436 -4.436,-11.655 0,-16.091 l 20.071,-20.071 c 4.436,-4.436 11.654,-4.436 16.091,0 l 55.01,55.01 c 4.436,4.436 4.436,11.655 0,16.091 z"
   style="fill:#9bd3e0" />
<path
   id="path20"
   d="m 498.76991,68.242 -9.683,-9.683 c 17.64,17.641 17.639,46.241 -10e-4,63.881 l -20.071,20.071 c -17.641,17.641 -46.242,17.641 -63.883,0 v 0 c -2.487,-2.487 -6.519,-2.487 -9.005,0 l -14.063,14.063 c -2.414,2.414 -6.328,2.414 -8.742,0 l 9.684,9.684 c 2.414,2.414 6.328,2.414 8.742,0 l 14.063,-14.063 c 2.487,-2.487 6.518,-2.487 9.005,0 17.641,17.641 46.242,17.641 63.883,0 l 20.071,-20.071 c 17.64,-17.641 17.64,-46.242 0,-63.882 z"
   style="opacity:0.1;enable-background:new" />


<g
   transform="translate(-8.6790227e-5)"
   id="g36">
</g>
<g
   transform="translate(-8.6790227e-5)"
   id="g38">
</g>
<g
   transform="translate(-8.6790227e-5)"
   id="g40">
</g>
<g
   transform="translate(-8.6790227e-5)"
   id="g42">
</g>
<g
   transform="translate(-8.6790227e-5)"
   id="g44">
</g>
<g
   transform="translate(-8.6790227e-5)"
   id="g46">
</g>
<g
   transform="translate(-8.6790227e-5)"
   id="g48">
</g>
<g
   transform="translate(-8.6790227e-5)"
   id="g50">
</g>
<g
   transform="translate(-8.6790227e-5)"
   id="g52">
</g>
<g
   transform="translate(-8.6790227e-5)"
   id="g54">
</g>
<g
   transform="translate(-8.6790227e-5)"
   id="g56">
</g>
<g
   transform="translate(-8.6790227e-5)"
   id="g58">
</g>
<g
   transform="translate(-8.6790227e-5)"
   id="g60">
</g>
<g
   transform="translate(-8.6790227e-5)"
   id="g62">
</g>
<g
   transform="translate(-8.6790227e-5)"
   id="g64">
</g>
</svg>
