<?xml version="1.0" encoding="UTF-8" standalone="no"?>
<svg
   xmlns:dc="http://purl.org/dc/elements/1.1/"
   xmlns:cc="http://creativecommons.org/ns#"
   xmlns:rdf="http://www.w3.org/1999/02/22-rdf-syntax-ns#"
   xmlns:svg="http://www.w3.org/2000/svg"
   xmlns="http://www.w3.org/2000/svg"
   xmlns:sodipodi="http://sodipodi.sourceforge.net/DTD/sodipodi-0.dtd"
   xmlns:inkscape="http://www.inkscape.org/namespaces/inkscape"
   inkscape:version="1.0 (4035a4fb49, 2020-05-01)"
   height="512"
   width="503.58334"
   sodipodi:docname="umbrella.svg"
   xml:space="preserve"
   viewBox="0 0 503.58334 512"
   y="0px"
   x="0px"
   id="Capa_1"
   version="1.1"><metadata
   id="metadata75"><rdf:RDF><cc:Work
       rdf:about=""><dc:format>image/svg+xml</dc:format><dc:type
         rdf:resource="http://purl.org/dc/dcmitype/StillImage" /></cc:Work></rdf:RDF></metadata><defs
   id="defs73" /><sodipodi:namedview
   inkscape:current-layer="Capa_1"
   inkscape:window-maximized="1"
   inkscape:window-y="-8"
   inkscape:window-x="-8"
   inkscape:cy="256"
   inkscape:cx="251.79164"
   inkscape:zoom="1.6162671"
   showgrid="false"
   id="namedview71"
   inkscape:window-height="1017"
   inkscape:window-width="1920"
   inkscape:pageshadow="2"
   inkscape:pageopacity="0"
   guidetolerance="10"
   gridtolerance="10"
   objecttolerance="10"
   borderopacity="1"
   bordercolor="#666666"
   pagecolor="#ffffff" />























<g
   transform="translate(-4.2083587)"
   id="g111"><g
     id="g32">
	<path
   style="fill:#4a5058"
   d="m 188.029,179.658 c -4.142,0 -7.5,-3.358 -7.5,-7.5 v -11.283 c 0,-4.142 3.358,-7.5 7.5,-7.5 4.142,0 7.5,3.358 7.5,7.5 v 11.283 c 0,4.142 -3.358,7.5 -7.5,7.5 z"
   id="path26" />
	<path
   style="fill:#4a5058"
   d="m 323.971,179.658 c -4.142,0 -7.5,-3.358 -7.5,-7.5 v -11.283 c 0,-4.142 3.358,-7.5 7.5,-7.5 4.142,0 7.5,3.358 7.5,7.5 v 11.283 c 0,4.142 -3.358,7.5 -7.5,7.5 z"
   id="path28" />
	<path
   style="fill:#4a5058"
   d="m 256,188.322 c -9.036,0 -17.628,-3.913 -23.575,-10.736 -2.721,-3.123 -2.396,-7.86 0.727,-10.582 3.123,-2.721 7.86,-2.396 10.582,0.727 3.097,3.554 7.567,5.592 12.266,5.592 4.699,0 9.169,-2.038 12.266,-5.592 2.721,-3.123 7.459,-3.447 10.582,-0.727 3.123,2.722 3.448,7.459 0.727,10.582 -5.947,6.823 -14.539,10.736 -23.575,10.736 z"
   id="path30" />
</g><g
     style="opacity:0.4"
     id="g38">
	<ellipse
   style="fill:#f15b70"
   cx="188.03"
   cy="200.25"
   rx="29.09"
   ry="12.625"
   id="ellipse34" />
	<ellipse
   style="fill:#f15b70"
   cx="323.97"
   cy="200.25"
   rx="29.09"
   ry="12.625"
   id="ellipse36" />
</g><rect
     x="240.99001"
     y="251.89"
     style="fill:#dbdcdd"
     width="30.030001"
     height="124.13"
     id="rect2" /><rect
     x="240.99001"
     y="251.89"
     style="opacity:0.1;enable-background:new"
     width="30.030001"
     height="25.775999"
     id="rect4" /><path
     style="fill:#a16b4e"
     d="m 307.068,512 c -39.748,0 -72.086,-32.337 -72.086,-72.085 V 376.02 c 0,-11.608 9.41,-21.018 21.018,-21.018 11.608,0 21.018,9.41 21.018,21.018 v 63.895 c 0,16.569 13.481,30.049 30.05,30.049 16.569,0 30.049,-13.48 30.049,-30.049 v -27.65 c 0,-11.608 9.41,-21.018 21.018,-21.018 11.608,0 21.018,9.41 21.018,21.018 v 27.65 c 0,39.748 -32.337,72.085 -72.085,72.085 z"
     id="path6" /><g
     id="g16">
	<path
   style="fill:#4a5058"
   d="m 23.761,289.231 c -4.142,0 -7.5,-3.358 -7.5,-7.5 v -29.845 c 0,-4.142 3.358,-7.5 7.5,-7.5 4.142,0 7.5,3.358 7.5,7.5 v 29.845 c 0,4.142 -3.358,7.5 -7.5,7.5 z"
   id="path8" />
	<path
   style="fill:#4a5058"
   d="m 488.239,289.231 c -4.142,0 -7.5,-3.358 -7.5,-7.5 v -29.845 c 0,-4.142 3.358,-7.5 7.5,-7.5 4.142,0 7.5,3.358 7.5,7.5 v 29.845 c 0,4.142 -3.358,7.5 -7.5,7.5 z"
   id="path10" />
	<path
   style="fill:#4a5058"
   d="m 131.639,289.231 c -4.142,0 -7.5,-3.358 -7.5,-7.5 0,-10.223 0.243,-20.364 0.723,-30.143 0.204,-4.137 3.711,-7.311 7.859,-7.124 4.137,0.203 7.326,3.722 7.124,7.859 -0.468,9.534 -0.705,19.428 -0.705,29.407 -10e-4,4.143 -3.359,7.501 -7.501,7.501 z"
   id="path12" />
	<path
   style="fill:#4a5058"
   d="m 380.361,289.231 c -4.142,0 -7.5,-3.358 -7.5,-7.5 0,-9.979 -0.237,-19.873 -0.705,-29.407 -0.203,-4.137 2.987,-7.656 7.123,-7.859 4.153,-0.199 7.656,2.987 7.859,7.124 0.479,9.778 0.723,19.919 0.723,30.143 0,4.141 -3.358,7.499 -7.5,7.499 z"
   id="path14" />
</g><path
     style="fill:#9bd3e0"
     d="m 500.935,251.886 c 3.862,0 6.961,-3.196 6.854,-7.057 C 504.053,108.98 392.753,0 256,0 119.247,0 7.947,108.98 4.211,244.83 c -0.106,3.861 2.992,7.057 6.854,7.057 h 489.87 z"
     id="path18" /><path
     style="opacity:0.1;enable-background:new"
     d="m 274.746,0.691 c 108.901,28.894 189.742,126.702 192.966,243.915 0.11,3.984 -3.087,7.281 -7.072,7.281 h 40.295 c 3.862,0 6.961,-3.196 6.854,-7.057 C 504.225,115.244 402.787,10.111 274.746,0.691 Z"
     id="path20" /><g
     style="opacity:0.3"
     id="g24">
	<path
   style="fill:#ffffff"
   d="M 379.646,251.921 C 371.374,83.493 293.485,25.004 256,0 218.517,25.003 140.637,83.485 132.356,251.887 Z"
   id="path22" />
</g><g
     id="g40">
</g><g
     id="g42">
</g><g
     id="g44">
</g><g
     id="g46">
</g><g
     id="g48">
</g><g
     id="g50">
</g><g
     id="g52">
</g><g
     id="g54">
</g><g
     id="g56">
</g><g
     id="g58">
</g><g
     id="g60">
</g><g
     id="g62">
</g><g
     id="g64">
</g><g
     id="g66">
</g><g
     id="g68">
</g></g>
</svg>
